{"title":"War, Rogue Assassin 2007 DVDrip English Klam","uid":6419362,"size":1578097682,"categoryP":"video","categoryS":"movies","magnet":"?xt=urn:btih:dafb91d5fe4d076b910f8cd30465e642202a601a&amp;dn=War%2C+Rogue+Assassin+2007+DVDrip+English+Klam&amp;tr=udp%3A%2F%2Ftracker.openbittorrent.com%3A80&amp;tr=udp%3A%2F%2Fopen.demonii.com%3A1337&amp;tr=udp%3A%2F%2Ftracker.coppersurfer.tk%3A6969&amp;tr=udp%3A%2F%2Fexodus.desync.com%3A6969","seeders":3,"leechers":0,"uploader":"Klambake","files":-1,"time":1306263357,"description":"With: Jet Li, Jason Statham and Devon Aoki\n\nWanneer de collega van FBI-agent Jack Crawford wordt vermoord door de mysterieuze huurmoordenaar 'Rogue' zweert deze wraak te nemen. Wat volgt is een intensieve klopjacht op 'Rogue', die bovendien een dodelijke oorlog heeft ontketend tussen twee Aziatische misdaadsyndicaten.\n\nWar,\nAn FBI Agent seeks vengeance on a mysterious assassin known as &quot;Rogue&quot; who murdered his partner. \n\nGeneral:\n\nComplete name                    : Rogue Assassin\\Rogue Assassin.avi\nFormat                           : AVI\nFormat/Info                      : Audio Video Interleave\nFile size                        : 1.47 GiB\nDuration                         : 1h 38mn\nOverall bit rate                 : 2 128 Kbps\n\nVideo:\n\nFormat                           : MPEG-4 Visual\nFormat profile                   : Simple@L3\nFormat settings, BVOP            : No\nFormat settings, QPel            : No\nFormat settings, GMC             : No warppoints\nFormat settings, Matrix          : Default (H.263)\nCodec ID                         : XVID\nCodec ID/Hint                    : XviD\nDuration                         : 1h 38mn\nBit rate                         : 1 670 Kbps\nWidth                            : 720 pixels\nHeight                           : 304 pixels\nDisplay aspect ratio             : 2.35:1\nFrame rate                       : 25.000 fps\nColor space                      : YUV\nChroma subsampling               : 4:2:0\nBit depth                        : 8 bits\nScan type                        : Progressive\nBits/(Pixel*Frame)               : 0.305\nStream size                      : 1.15 GiB (78%)\nWriting library                  : XviD 1.1.2 (UTC 2006-11-01)\n\nAudio:\n\nFormat                           : AC-3\nFormat/Info                      : Audio Coding 3\nMode extension                   : CM (complete main)\nCodec ID                         : 2000\nDuration                         : 1h 38mn\nBit rate mode                    : Constant\nBit rate                         : 448 Kbps\nChannel(s)                       : 6 channels\nChannel positions                : Front: L C R, Side: L R, LFE\nSampling rate                    : 48.0 KHz\nBit depth                        : 16 bits\nStream size                      : 316 MiB (21%)\nAlignment                        : Aligned on interleaves\nInterleave, duration             : 32 ms (0.80 video frame)\nInterleave, preload duration     : 768 ms\n\n\n","torrent":{"xt":"urn:btih:dafb91d5fe4d076b910f8cd30465e642202a601a","amp;dn":"War%2C+Rogue+Assassin+2007+DVDrip+English+Klam","amp;tr":["udp%3A%2F%2Ftracker.openbittorrent.com%3A80","udp%3A%2F%2Fopen.demonii.com%3A1337","udp%3A%2F%2Ftracker.coppersurfer.tk%3A6969","udp%3A%2F%2Fexodus.desync.com%3A6969"],"infoHash":"dafb91d5fe4d076b910f8cd30465e642202a601a","infoHashBuffer":{"type":"Buffer","data":[218,251,145,213,254,77,7,107,145,15,140,211,4,101,230,66,32,42,96,26]},"announce":[],"urlList":[]}}